0
SECTION
2
HEADER
9
$INSUNITS
70
4
9
$ACADVER
1
AC1014
9
$HANDSEED
5
FFFF
0
ENDSEC
0
SECTION
2
TABLES
0
TABLE
2
VPORT
5
8
100
AcDbSymbolTable
0
ENDTAB
0
TABLE
2
LTYPE
5
5
100
AcDbSymbolTable
0
LTYPE
5
14
100
AcDbSymbolTableRecord
100
AcDbLinetypeTableRecord
2
BYBLOCK
70
0
0
LTYPE
5
15
100
AcDbSymbolTableRecord
100
AcDbLinetypeTableRecord
2
BYLAYER
70
0
0
ENDTAB
0
TABLE
2
LAYER
5
2
100
AcDbSymbolTable
70
2
0
LAYER
5
50
100
AcDbSymbolTableRecord
100
AcDbLayerTableRecord
2
0
70
0
6
CONTINUOUS
0
ENDTAB
0
TABLE
2
STYLE
5
3
100
AcDbSymbolTable
70
1
0
STYLE
5
11
100
AcDbSymbolTableRecord
100
AcDbTextStyleTableRecord
2
STANDARD
70
0
0
ENDTAB
0
TABLE
2
VIEW
5
6
100
AcDbSymbolTable
70
0
0
ENDTAB
0
TABLE
2
UCS
5
7
100
AcDbSymbolTable
70
0
0
ENDTAB
0
TABLE
2
APPID
5
9
100
AcDbSymbolTable
70
2
0
APPID
5
12
100
AcDbSymbolTableRecord
100
AcDbRegAppTableRecord
2
ACAD
70
0
0
ENDTAB
0
TABLE
2
DIMSTYLE
5
A
100
AcDbSymbolTable
70
1
0
ENDTAB
0
TABLE
2
BLOCK_RECORD
5
1
100
AcDbSymbolTable
70
1
0
BLOCK_RECORD
5
1F
100
AcDbSymbolTableRecord
100
AcDbBlockTableRecord
2
*MODEL_SPACE
0
BLOCK_RECORD
5
1B
100
AcDbSymbolTableRecord
100
AcDbBlockTableRecord
2
*PAPER_SPACE
0
ENDTAB
0
ENDSEC
0
SECTION
2
BLOCKS
0
BLOCK
5
20
100
AcDbEntity
100
AcDbBlockBegin
2
*MODEL_SPACE
0
ENDBLK
5
21
100
AcDbEntity
100
AcDbBlockEnd
0
BLOCK
5
1C
100
AcDbEntity
100
AcDbBlockBegin
2
*PAPER_SPACE
0
ENDBLK
5
1D
100
AcDbEntity
100
AcDbBlockEnd
0
ENDSEC
0
SECTION
2
ENTITIES
0
LINE
5
100
100
AcDbEntity
8
0
100
AcDbLine
10
315.15869697735076
20
8.2690148230702416
30
0
11
-31.654328742627968
21
-105.51026796142176
31
0
0
LINE
5
101
100
AcDbEntity
8
0
100
AcDbLine
10
-31.654328742627968
20
-105.51026796142176
30
0
11
-492.50415273750764
21
-43.522852110392762
31
0
0
LINE
5
102
100
AcDbEntity
8
0
100
AcDbLine
10
-475.11659130726918
20
55.086908916452387
30
0
11
-388.69017203719625
21
60.956314774721776
31
0
0
LINE
5
103
100
AcDbEntity
8
0
100
AcDbLine
10
-221.06049362174033
20
99.668458381540745
30
0
11
108.93950637825968
21
99.668458381540745
31
0
0
LINE
5
104
100
AcDbEntity
8
0
100
AcDbLine
10
108.93950637825968
20
99.668458381540745
30
0
11
108.93950637825967
21
76.668458381540759
31
0
0
LINE
5
105
100
AcDbEntity
8
0
100
AcDbLine
10
108.93950637825967
20
76.668458381540759
30
0
11
146.43420517624773
21
12.870750256184447
31
0
0
LINE
5
106
100
AcDbEntity
8
0
100
AcDbLine
10
146.43420517624773
20
12.870750256184447
30
0
11
237.42255408970834
21
14.326896540853095
31
0
0
LINE
5
107
100
AcDbEntity
8
0
100
AcDbLine
10
237.42255408970834
20
14.326896540853095
30
0
11
270.37362232706136
21
61.448835189611003
31
0
0
LINE
5
108
100
AcDbEntity
8
0
100
AcDbLine
10
314.62687622853917
20
60.397230303109374
30
0
11
317.50197787201324
21
56.306534697262833
31
0
0
LINE
5
109
100
AcDbEntity
8
0
100
AcDbLine
10
317.50197787201324
20
56.306534697262833
30
0
11
322.48056638814973
21
15.794470697262831
31
0
0
LINE
5
110
100
AcDbEntity
8
0
100
AcDbLine
10
322.48056638814973
20
15.794470697262831
30
0
11
314.42134794727377
21
14.269014823070243
31
0
0
LINE
5
111
100
AcDbEntity
8
0
100
AcDbLine
10
314.42134794727377
20
14.269014823070243
30
0
11
315.15869697735076
21
8.2690148230702416
31
0
0
LINE
5
112
100
AcDbEntity
8
0
100
AcDbLine
10
317.50197787201324
20
56.306534697262833
30
0
11
276.50197787201324
21
56.306534312118643
31
0
0
LINE
5
113
100
AcDbEntity
8
0
100
AcDbLine
10
276.50197787201324
20
56.306534312118643
30
0
11
276.50197844240347
21
-4.4131319924290748
31
0
0
LINE
5
114
100
AcDbEntity
8
0
100
AcDbLine
10
314.42134794727377
20
14.269014823070243
30
0
11
276.50197833432651
21
7.0916035708325085
31
0
0
LINE
5
115
100
AcDbEntity
8
0
100
AcDbLine
10
276.50197844240347
20
-4.4131319924290748
30
0
11
-492.50415273750764
21
-43.522852110392762
31
0
0
LINE
5
116
100
AcDbEntity
8
0
100
AcDbLine
10
-223.26486966398693
20
74.472324923707646
30
0
11
108.93950637825967
21
76.668458381540759
31
0
0
LINE
5
117
100
AcDbEntity
8
0
100
AcDbLine
10
146.43420517624773
20
12.870750256184447
30
0
11
237.42255408970834
21
14.326896540853095
31
0
0
LINE
5
118
100
AcDbEntity
8
0
100
AcDbLine
10
-265.709526947011
20
13.855072228104726
30
0
11
-355.70952694701106
21
13.855072228104738
31
0
0
LINE
5
119
100
AcDbEntity
8
0
100
AcDbLine
10
270.37362232706136
20
61.448835189611003
30
0
11
276.50197787201324
21
56.306534312118643
31
0
0
LINE
5
120
100
AcDbEntity
8
0
100
AcDbLine
10
314.62687622853917
20
60.397230303109374
30
0
11
271.62687622853917
21
60.397230303109481
31
0
0
LINE
5
121
100
AcDbEntity
8
0
100
AcDbLine
10
-204.47301274071043
20
-82.264987017305216
30
0
11
-213.8035571915467
21
-29.348839906142608
31
0
0
LINE
5
122
100
AcDbEntity
8
0
100
AcDbLine
10
-204.47301274071043
20
-82.264987017305216
30
0
11
-150.74054876557494
21
-82.264987017305216
31
0
0
LINE
5
123
100
AcDbEntity
8
0
100
AcDbLine
10
-213.8035571915467
20
-29.348839906142608
30
0
11
-204.70965046748739
21
74.594989586287767
31
0
0
LINE
5
124
100
AcDbEntity
8
0
100
AcDbLine
10
-213.8035571915467
20
-29.348839906142608
30
0
11
-113.90332756240136
21
-29.348839906142608
31
0
0
LINE
5
125
100
AcDbEntity
8
0
100
AcDbLine
10
-223.26486966398693
20
74.472324923707646
30
0
11
-265.709526947011
21
13.855072228104726
31
0
0
LINE
5
126
100
AcDbEntity
8
0
100
AcDbLine
10
-204.71115149247737
20
74.57783279214442
30
0
11
-155.47423381972203
21
74.577832792144434
31
0
0
LINE
5
127
100
AcDbEntity
8
0
100
AcDbLine
10
-492.50415273750764
20
-43.522852110392762
30
0
11
-475.11659130726918
21
55.086908916452387
31
0
0
LINE
5
128
100
AcDbEntity
8
0
100
AcDbLine
10
-492.50415273750764
20
-43.522852110392762
30
0
11
-437.00258726793209
21
-43.522852110444255
31
0
0
LINE
5
129
100
AcDbEntity
8
0
100
AcDbLine
10
-291.55574734321186
20
110.87055899856563
30
0
11
-291.55574734321186
21
109.12724027249298
31
0
0
LINE
5
130
100
AcDbEntity
8
0
100
AcDbLine
10
-221.06049362174033
20
99.668458381540745
30
0
11
-223.26486966398693
21
74.472324923707646
31
0
0
LINE
5
131
100
AcDbEntity
8
0
100
AcDbLine
10
-221.06049362174033
20
99.668458381540745
30
0
11
-195.91040924648169
21
99.668458381540745
31
0
0
LINE
5
132
100
AcDbEntity
8
0
100
AcDbLine
10
-355.70952694701106
20
13.855072228104738
30
0
11
-388.69017203719625
21
60.956314774721776
31
0
0
LINE
5
133
100
AcDbEntity
8
0
100
AcDbLine
10
-355.70952694701106
20
13.855072228104738
30
0
11
-298.19712484089303
21
13.855072228104738
31
0
0
LINE
5
134
100
AcDbEntity
8
0
100
AcDbLine
10
200.78511942384779
20
-18.41160549364222
30
0
11
-31.654328742627968
21
-94.668238727937748
31
0
0
LINE
5
135
100
AcDbEntity
8
0
100
AcDbLine
10
200.78511942384779
20
-18.41160549364222
30
0
11
-212.03014628633525
21
-39.406352931580244
31
0
0
LINE
5
136
100
AcDbEntity
8
0
100
AcDbLine
10
-31.654328742627968
20
-94.668238727937748
30
0
11
-206.43119762510113
21
-71.159568683010036
31
0
0
ENDSEC
0
SECTION
2
OBJECTS
0
DICTIONARY
5
C
100
AcDbDictionary
3
ACAD_GROUP
350
D
3
ACAD_MLINESTYLE
350
17
0
DICTIONARY
5
D
100
AcDbDictionary
0
DICTIONARY
5
1A
330
C
100
AcDbDictionary
0
DICTIONARY
5
17
100
AcDbDictionary
0
ENDSEC
0
EOF
